<svg width="30" height="30" viewBox="0 0 30 30" fill="none" xmlns="http://www.w3.org/2000/svg">
<path d="M12.5 13.75H13.75V26.25H12.5V27.5H10V26.25H8.75V13.75H10V12.5H12.5V13.75Z" fill="white"/>
<path d="M15 6.25H13.75V7.5H15V6.25Z" fill="white"/>
<path d="M16.25 7.5H15V8.75H16.25V7.5Z" fill="white"/>
<path d="M20 10H21.25V12.5H20V13.75H17.5V12.5H16.25V10H17.5V8.75H20V10Z" fill="white"/>
<path d="M20 18.75H21.25V26.25H20V27.5H17.5V26.25H16.25V18.75H17.5V17.5H20V18.75Z" fill="white"/>
<path d="M22.5 7.5H21.25V8.75H22.5V7.5Z" fill="white"/>
<path d="M23.75 6.25H22.5V7.5H23.75V6.25Z" fill="white"/>
<path d="M28.75 2.5V5H27.5V6.25H25V5H23.75V2.5H25V1.25H27.5V2.5H28.75Z" fill="white"/>
<path d="M27.5 13.75H28.75V26.25H27.5V27.5H25V26.25H23.75V13.75H25V12.5H27.5V13.75Z" fill="white"/>
<path d="M7.5 8.75H6.25V10H7.5V8.75Z" fill="white"/>
<path d="M5 11.25H6.25V13.75H5V15H2.5V13.75H1.25V11.25H2.5V10H5V11.25Z" fill="white"/>
<path d="M5 20H6.25V26.25H5V27.5H2.5V26.25H1.25V20H2.5V18.75H5V20Z" fill="white"/>
<path d="M8.75 7.5H7.5V8.75H8.75V7.5Z" fill="white"/>
<path d="M10 5H8.75V2.5H10V1.25H12.5V2.5H13.75V5H12.5V6.25H10V5Z" fill="white"/>
</svg>
