<svg width="30" height="28" viewBox="0 0 30 28" fill="none" xmlns="http://www.w3.org/2000/svg">
<path d="M10.7493 12.0835H7.91602V14.9168H10.7493V12.0835Z" fill="white"/>
<path d="M16.4163 12.0835H13.583V14.9168H16.4163V12.0835Z" fill="white"/>
<path d="M22.0833 12.0835H19.25V14.9168H22.0833V12.0835Z" fill="white"/>
<path d="M10.7493 17.75H7.91602V20.5833H10.7493V17.75Z" fill="white"/>
<path d="M16.4163 17.75H13.583V20.5833H16.4163V17.75Z" fill="white"/>
<path d="M22.0833 17.75H19.25V20.5833H22.0833V17.75Z" fill="white"/>
<path d="M27.7497 3.58333V2.16667H22.083V0.75H19.2497V2.16667H10.7497V0.75H7.91634V2.16667H2.24967V3.58333H0.833008V26.25H2.24967V27.6667H27.7497V26.25H29.1663V3.58333H27.7497ZM26.333 23.4167H24.9163V24.8333H5.08301V23.4167H3.66634V6.41667H5.08301V5H7.91634V7.83333H10.7497V5H19.2497V7.83333H22.083V6.41667V5H24.9163V6.41667H26.333V23.4167Z" fill="white"/>
</svg>
