<svg width="25" height="27" viewBox="0 0 25 27" fill="none" xmlns="http://www.w3.org/2000/svg">
<path d="M6.66634 13.5H8.12467V14.9583H16.8747V13.5H18.333V12.0417H19.7913V3.29167H18.333V1.83333H16.8747V0.375H8.12467V1.83333H6.66634V3.29167H5.20801V12.0417H6.66634V13.5ZM8.12467 6.20833H9.58301V4.75H11.0413V3.29167H13.958V4.75H15.4163V6.20833H16.8747V9.125H15.4163V10.5833H13.958V12.0417H11.0413V10.5833H9.58301V9.125H8.12467V6.20833Z" fill="white"/>
<path d="M22.708 19.3332V17.8748H21.2497V16.4165H3.74967V17.8748H2.29134V19.3332H0.833008V26.6248H3.74967V22.2498H5.20801V20.7915H6.66634V19.3332H18.333V20.7915H19.7913V22.2498H21.2497V26.6248H24.1663V19.3332H22.708Z" fill="white"/>
</svg>
