<svg width="34" height="35" viewBox="0 0 34 35" fill="none" xmlns="http://www.w3.org/2000/svg">
<path d="M24.0837 14.6665V20.3332H22.667V21.7498H21.2503V23.1665H19.8337V24.5832H14.167V23.1665H12.7503V21.7498H11.3337V20.3332H9.91699V14.6665H11.3337V13.2498H12.7503V11.8332H14.167V10.4165H19.8337V11.8332H21.2503V13.2498H22.667V14.6665H24.0837Z" fill="white"/>
<path d="M29.7503 16.0832V14.6665H31.167V13.2498H32.5837V10.4165H28.3337V8.99984H25.5003V6.1665H24.0837V1.9165H21.2503V3.33317H19.8337V4.74984H18.417V6.1665H15.5837V4.74984H14.167V3.33317H12.7503V1.9165H9.91699V6.1665H8.50033V8.99984H5.66699V10.4165H1.41699V13.2498H2.83366V14.6665H4.25033V16.0832H5.66699V18.9165H4.25033V20.3332H2.83366V21.7498H1.41699V24.5832H5.66699V25.9998H8.50033V28.8332H9.91699V33.0832H12.7503V31.6665H14.167V30.2498H15.5837V28.8332H18.417V30.2498H19.8337V31.6665H21.2503V33.0832H24.0837V28.8332H25.5003V25.9998H28.3337V24.5832H32.5837V21.7498H31.167V20.3332H29.7503V18.9165H28.3337V16.0832H29.7503ZM25.5003 21.7498H24.0837V23.1665H22.667V24.5832H21.2503V25.9998H12.7503V24.5832H11.3337V23.1665H9.91699V21.7498H8.50033V13.2498H9.91699V11.8332H11.3337V10.4165H12.7503V8.99984H21.2503V10.4165H22.667V11.8332H24.0837V13.2498H25.5003V21.7498Z" fill="white"/>
</svg>
