<svg width="24" height="29" viewBox="0 0 24 29" fill="none" xmlns="http://www.w3.org/2000/svg">
<path d="M13.4167 15.9168V13.0835H10.5833V15.9168H7.75V18.7502H10.5833V21.5835H13.4167V18.7502H16.25V15.9168H13.4167Z" fill="white"/>
<path d="M21.917 7.41683V6.00016H20.5003V4.5835H19.0837V3.16683H17.667V1.75016H16.2503V0.333496H2.08366V1.75016H0.666992V27.2502H2.08366V28.6668H21.917V27.2502H23.3337V7.41683H21.917ZM20.5003 24.4168H19.0837V25.8335H4.91699V24.4168H3.50033V4.5835H4.91699V3.16683H12.0003V11.6668H20.5003V24.4168ZM17.667 7.41683V8.8335H14.8337V6.00016H16.2503V7.41683H17.667Z" fill="white"/>
</svg>
